<?xml version="1.0" standalone="no"?>
<!DOCTYPE svg PUBLIC "-//W3C//DTD SVG 20010904//EN"
 "http://www.w3.org/TR/2001/REC-SVG-20010904/DTD/svg10.dtd">
<svg version="1.0" xmlns="http://www.w3.org/2000/svg"
 width="700.000000pt" height="700.000000pt" viewBox="0 0 700.000000 700.000000"
 preserveAspectRatio="xMidYMid meet">
<metadata>
Created by potrace 1.11, written by Peter Selinger 2001-2013
</metadata>
<g transform="translate(0.000000,700.000000) scale(0.100000,-0.100000)"
fill="#000000" stroke="none">
<path d="M3195 6900 c-147 -7 -204 -13 -250 -29 -33 -11 -111 -27 -173 -35
-62 -9 -124 -23 -137 -32 -12 -8 -66 -24 -119 -34 -53 -11 -109 -28 -124 -39
-15 -11 -53 -25 -84 -31 -31 -6 -62 -18 -69 -26 -6 -8 -42 -24 -80 -35 -37
-11 -73 -27 -79 -34 -6 -8 -28 -19 -48 -25 -78 -25 -291 -138 -332 -177 -13
-13 -27 -23 -31 -23 -3 0 -24 -14 -45 -31 -22 -17 -54 -37 -71 -44 -18 -8 -33
-19 -33 -24 0 -6 -15 -18 -32 -27 -18 -9 -42 -26 -54 -38 -11 -12 -69 -59
-127 -105 -58 -46 -113 -94 -122 -107 -8 -13 -22 -24 -30 -24 -8 0 -15 -4 -15
-10 0 -5 -42 -51 -92 -103 -51 -51 -100 -102 -108 -114 -34 -48 -150 -190
-174 -214 -14 -15 -26 -32 -26 -38 0 -7 -11 -23 -25 -37 -14 -14 -35 -44 -46
-67 -12 -23 -30 -48 -39 -54 -10 -7 -21 -25 -25 -40 -3 -16 -17 -42 -30 -59
-13 -16 -30 -47 -39 -67 -8 -21 -22 -44 -30 -52 -8 -8 -22 -36 -32 -62 -9 -27
-23 -55 -31 -64 -7 -9 -21 -38 -30 -65 -9 -27 -24 -59 -34 -72 -9 -12 -22 -46
-29 -75 -7 -28 -23 -68 -35 -87 -13 -19 -29 -64 -35 -99 -6 -35 -22 -85 -35
-110 -13 -26 -28 -80 -34 -126 -5 -44 -19 -101 -31 -127 -15 -34 -23 -85 -31
-185 -6 -76 -18 -169 -27 -208 -23 -97 -30 -593 -9 -627 13 -21 27 -128 42
-318 4 -41 15 -95 26 -119 11 -25 26 -84 33 -131 8 -48 24 -104 35 -126 12
-22 26 -67 32 -100 5 -32 19 -71 30 -86 10 -15 26 -55 33 -89 8 -34 24 -71 35
-83 11 -11 22 -34 26 -51 10 -45 26 -85 35 -85 5 0 18 -25 30 -57 11 -31 32
-69 45 -84 13 -16 26 -42 30 -59 4 -17 14 -34 22 -37 9 -3 26 -29 40 -57 26
-56 60 -108 92 -144 11 -12 28 -37 37 -55 52 -101 361 -435 581 -628 56 -49
106 -89 111 -89 6 0 19 -11 29 -24 10 -13 34 -31 53 -41 19 -10 49 -30 67 -44
71 -57 98 -77 126 -89 16 -6 45 -26 64 -42 18 -17 38 -30 44 -30 5 0 26 -11
47 -24 20 -14 51 -28 67 -32 17 -4 58 -22 93 -41 35 -18 69 -33 76 -33 8 0 25
-9 40 -21 15 -12 53 -28 84 -36 31 -8 71 -23 88 -34 17 -10 60 -25 95 -32 35
-8 83 -24 106 -36 24 -13 76 -27 119 -32 42 -6 95 -19 117 -30 28 -15 85 -26
201 -38 89 -10 170 -22 181 -28 70 -36 721 -34 780 2 11 7 52 16 90 20 39 3
109 10 156 15 52 5 102 16 126 28 21 11 75 25 118 31 44 6 98 21 120 33 22 11
68 27 103 34 35 8 82 25 105 38 23 14 61 28 85 32 24 4 49 12 56 19 18 18 73
45 92 45 9 0 31 11 48 24 17 13 57 31 88 40 31 9 60 21 64 27 3 6 23 18 43 26
35 15 47 24 144 103 27 22 54 40 62 40 8 0 29 14 47 30 18 17 37 30 42 30 4 0
25 15 46 33 20 17 58 48 84 67 63 46 104 81 188 163 38 37 73 67 77 67 4 0 13
11 20 24 7 13 23 29 36 36 13 7 28 23 33 35 6 13 20 26 31 30 11 3 22 14 25
23 3 9 35 48 71 85 36 37 65 72 65 77 0 4 15 26 33 49 17 22 46 59 62 81 17
23 42 55 56 73 14 18 31 46 38 64 7 17 23 41 36 53 13 13 27 35 30 51 4 15 19
44 35 64 16 20 31 49 35 64 3 16 14 37 24 47 10 11 26 42 36 69 10 28 26 59
35 70 10 11 25 44 35 73 9 29 23 59 31 66 8 8 20 42 28 75 8 33 24 76 36 95
12 20 26 66 32 103 6 37 21 88 33 113 14 27 28 82 35 140 7 52 21 117 32 144
62 157 61 1089 -1 1256 -11 30 -25 98 -31 150 -7 61 -20 111 -34 140 -13 25
-28 74 -35 110 -6 36 -19 76 -29 90 -10 14 -26 56 -35 94 -10 39 -21 73 -27
76 -13 8 -40 75 -40 99 0 11 -11 32 -24 48 -12 15 -31 51 -40 79 -9 29 -25 59
-36 69 -10 9 -22 30 -25 46 -4 16 -17 42 -30 57 -13 16 -31 48 -41 71 -9 24
-28 54 -41 67 -12 13 -23 29 -23 37 0 7 -12 24 -26 38 -14 13 -33 38 -41 54
-9 17 -28 44 -42 62 -14 18 -39 50 -56 73 -16 22 -58 71 -92 108 -35 37 -63
71 -63 76 0 13 -230 245 -263 266 -15 9 -56 43 -90 74 -81 73 -147 126 -157
126 -4 0 -26 15 -49 33 -87 68 -106 83 -137 102 -17 11 -63 41 -101 67 -39 26
-90 55 -113 63 -24 9 -52 23 -61 31 -10 9 -37 20 -61 25 -24 6 -59 21 -78 34
-19 13 -55 29 -80 35 -25 7 -58 21 -73 32 -16 12 -59 27 -95 35 -36 7 -73 20
-82 27 -18 16 -69 32 -128 40 -24 4 -62 16 -84 27 -24 12 -82 25 -147 33 -59
8 -121 21 -138 30 -17 8 -71 20 -120 25 -131 14 -572 20 -788 11z m-1054 -558
c11 -11 39 -25 62 -33 59 -19 114 -80 133 -148 26 -89 27 -122 6 -197 -21 -73
-46 -106 -136 -174 -37 -28 -44 -30 -136 -30 -94 0 -98 1 -146 35 -27 19 -55
35 -61 35 -7 0 -13 7 -13 15 0 9 -12 28 -26 42 -39 39 -52 172 -28 290 6 31
80 104 125 124 21 10 44 27 51 38 11 18 23 21 81 21 52 0 72 -4 88 -18z m2916
-1 c7 -10 35 -27 63 -36 28 -9 54 -24 57 -34 3 -9 18 -29 34 -46 15 -16 33
-50 38 -75 23 -98 6 -241 -30 -261 -11 -5 -24 -21 -29 -35 -5 -13 -22 -29 -36
-34 -15 -6 -41 -22 -57 -36 -30 -25 -35 -26 -134 -22 -95 3 -104 5 -131 31
-15 15 -32 27 -37 27 -5 0 -26 18 -46 39 -51 56 -67 147 -48 273 12 81 16 91
40 104 15 7 30 22 34 33 3 10 25 26 49 35 24 9 52 25 62 36 28 28 154 29 171
1z m-1162 -41 c37 -14 100 -25 165 -30 111 -9 135 -14 161 -37 9 -7 53 -19 97
-27 76 -12 148 -46 170 -80 3 -6 9 -58 13 -116 5 -91 9 -110 32 -144 15 -21
27 -45 27 -53 0 -17 79 -99 143 -147 28 -22 68 -41 98 -47 81 -18 81 -19 75
-296 -10 -400 -24 -734 -34 -807 -14 -101 -38 -113 -137 -65 -22 11 -51 26
-65 34 -14 8 -41 22 -60 30 -19 8 -46 22 -60 30 -14 8 -45 24 -70 35 -25 11
-56 27 -70 34 -47 27 -176 86 -188 86 -6 0 -33 14 -59 30 -26 17 -51 30 -56
30 -5 0 -25 7 -44 16 -58 28 -65 49 -67 187 l-1 123 -42 81 c-59 113 -120 171
-243 229 -83 39 -352 26 -404 -20 -13 -12 -36 -28 -52 -37 -16 -8 -54 -44 -86
-80 -43 -49 -60 -78 -73 -124 -28 -101 -34 -137 -35 -210 -1 -101 -20 -133
-94 -162 -32 -12 -67 -30 -76 -38 -10 -9 -35 -21 -56 -26 -22 -6 -48 -19 -59
-29 -11 -10 -46 -28 -77 -40 -32 -12 -58 -25 -58 -30 0 -5 -22 -16 -48 -24
-27 -9 -64 -28 -82 -41 -19 -14 -41 -25 -50 -25 -9 0 -52 -18 -95 -40 -70 -36
-81 -39 -99 -26 -20 13 -21 26 -29 262 -4 137 -14 290 -22 339 -8 50 -18 162
-21 250 -12 311 -12 310 58 321 21 4 54 19 73 34 19 15 48 33 65 40 16 7 30
16 30 21 0 4 17 28 39 52 21 25 41 57 45 72 4 15 16 39 27 54 14 19 21 49 25
111 3 47 10 99 15 115 17 51 61 77 154 91 55 8 93 20 113 34 24 18 51 24 153
32 75 6 136 16 154 25 46 24 165 32 455 28 244 -3 270 -5 325 -25z m-2095
-636 c60 -32 88 -44 130 -56 55 -16 70 -42 80 -147 11 -102 35 -1094 27 -1114
-7 -19 -108 -85 -157 -102 -19 -7 -53 -24 -74 -39 -21 -14 -46 -26 -55 -26 -9
0 -33 -11 -54 -26 -21 -14 -56 -31 -78 -39 -22 -8 -52 -23 -65 -34 -14 -11
-42 -25 -62 -32 -20 -6 -49 -20 -64 -31 -15 -10 -45 -25 -68 -33 -23 -8 -53
-23 -66 -34 -14 -11 -42 -25 -62 -32 -20 -7 -53 -22 -72 -35 -19 -12 -52 -27
-72 -33 -20 -7 -42 -19 -48 -27 -24 -28 -83 -10 -130 41 -14 15 -43 36 -65 47
-49 25 -115 86 -115 108 0 8 8 27 17 40 11 15 22 63 29 124 9 73 18 106 34
128 13 18 26 57 32 100 7 45 18 79 33 96 12 15 27 53 34 84 7 31 21 68 32 82
11 13 26 42 33 63 7 21 25 56 40 77 14 21 26 47 26 57 0 10 11 26 23 36 13 10
30 36 37 58 7 22 25 52 41 67 16 15 29 34 29 42 0 9 9 25 20 36 10 10 28 36
39 57 11 21 44 64 75 96 31 32 56 61 56 64 0 3 81 86 180 185 195 194 189 190
260 152z m3546 -20 c42 -38 41 -38 75 -70 27 -27 47 -47 70 -70 10 -11 23 -23
28 -29 5 -5 20 -20 32 -31 44 -44 50 -50 83 -88 70 -81 88 -103 126 -156 22
-30 40 -60 40 -67 0 -6 11 -20 25 -31 14 -11 32 -37 41 -59 9 -21 26 -49 39
-63 12 -14 26 -36 30 -50 4 -14 18 -38 31 -53 13 -16 27 -41 30 -55 4 -15 17
-38 30 -52 12 -14 28 -47 34 -75 6 -27 20 -60 31 -71 11 -12 27 -50 35 -85 8
-35 24 -73 34 -84 13 -13 23 -46 30 -91 5 -39 21 -93 34 -120 19 -38 27 -72
32 -150 l6 -100 -33 -33 c-18 -19 -45 -39 -59 -45 -30 -13 -94 -62 -123 -93
-25 -28 -39 -29 -62 -3 -9 10 -41 26 -69 34 -29 9 -61 25 -71 36 -10 11 -36
23 -57 27 -22 3 -56 17 -76 31 -20 13 -54 31 -76 39 -22 7 -47 20 -56 27 -8 8
-39 23 -69 35 -29 11 -61 27 -70 35 -9 9 -37 22 -61 31 -24 9 -51 22 -60 30
-8 7 -40 23 -72 35 -31 11 -61 27 -68 35 -6 8 -33 21 -60 30 -31 10 -62 30
-84 55 l-36 40 6 352 c3 194 8 362 11 373 3 11 8 126 12 256 7 269 6 268 90
293 26 7 64 25 85 40 55 37 94 34 142 -10z m-1746 -419 c27 -14 55 -25 61 -25
24 0 85 -65 101 -108 9 -24 24 -52 33 -62 24 -26 23 -119 -2 -162 -11 -18 -23
-45 -26 -59 -6 -22 -38 -55 -132 -136 -15 -13 -40 -17 -120 -18 -98 0 -102 1
-140 31 -22 17 -49 34 -61 38 -12 4 -29 26 -41 54 -12 26 -28 54 -37 61 -13
11 -16 34 -16 116 l0 103 68 68 c37 38 88 81 112 96 60 37 131 38 200 3z
m-455 -595 c52 -35 99 -69 122 -89 13 -11 38 -22 55 -26 59 -11 90 -28 99 -52
5 -13 9 -122 9 -243 l0 -218 -37 -17 c-136 -63 -176 -87 -220 -132 -81 -85
-100 -118 -122 -213 -26 -107 -26 -173 -1 -265 l19 -70 -27 -23 c-15 -12 -34
-28 -42 -36 -8 -7 -35 -26 -60 -41 -24 -16 -51 -34 -58 -42 -8 -7 -27 -20 -43
-28 -16 -9 -29 -19 -29 -24 0 -4 -21 -22 -47 -39 -113 -74 -129 -86 -155 -110
-23 -21 -33 -24 -70 -18 -24 4 -54 17 -68 30 -14 13 -51 30 -84 39 -70 19 -93
38 -106 86 -6 20 -14 142 -19 271 -5 129 -14 258 -19 285 -6 28 -12 169 -13
315 l-4 265 40 18 c22 11 47 25 55 33 9 7 35 20 59 29 23 8 54 23 69 33 15 11
44 25 64 31 20 7 47 20 60 31 13 10 46 25 74 33 27 8 67 26 88 41 21 14 47 26
56 26 10 0 29 10 44 21 15 12 51 30 79 41 29 11 60 26 69 35 20 17 84 42 113
43 11 0 34 -9 50 -20z m895 -26 c41 -19 86 -41 100 -49 14 -8 45 -24 70 -35
25 -11 56 -27 70 -35 14 -8 41 -22 60 -30 19 -8 46 -22 60 -30 14 -8 45 -24
70 -35 25 -11 56 -27 70 -35 14 -8 41 -22 60 -30 19 -8 46 -22 60 -30 14 -8
45 -24 70 -35 25 -12 52 -24 60 -29 18 -10 41 -55 41 -79 -1 -9 -6 -249 -11
-532 -6 -283 -13 -525 -15 -537 -4 -16 -25 -29 -82 -52 -43 -18 -83 -35 -89
-39 -6 -4 -30 -20 -53 -36 -22 -16 -59 -32 -80 -36 -41 -7 -56 0 -176 90 -22
16 -65 47 -95 69 -30 22 -73 54 -95 71 -22 16 -56 40 -75 54 -19 13 -52 40
-74 60 -35 33 -38 40 -33 74 27 173 15 333 -28 384 -14 16 -25 35 -25 42 0 19
-114 132 -152 152 -18 9 -44 25 -57 35 -13 11 -34 19 -47 19 -13 0 -33 9 -45
21 -19 19 -20 29 -17 248 3 260 4 264 83 275 26 4 59 19 81 37 20 16 41 29 47
29 6 0 25 16 43 36 31 34 35 35 81 29 26 -4 82 -22 123 -41z m-1976 -506 c12
-55 16 -139 30 -558 17 -520 20 -496 -71 -530 -70 -25 -158 -100 -209 -176
-28 -43 -41 -77 -56 -152 -19 -96 -19 -97 1 -206 18 -93 27 -117 56 -155 66
-86 112 -126 191 -166 l79 -40 135 0 135 1 70 39 c39 21 85 51 103 67 28 24
39 28 70 22 20 -3 51 -15 67 -25 17 -10 48 -28 71 -39 22 -11 53 -30 69 -42
16 -12 49 -33 75 -46 69 -35 130 -70 158 -92 13 -11 30 -20 38 -20 7 0 26 -11
42 -25 17 -14 47 -33 68 -43 73 -34 145 -85 142 -101 -3 -16 -66 -58 -138 -92
-25 -12 -58 -32 -73 -45 -16 -13 -34 -24 -40 -24 -7 0 -30 -12 -52 -27 -22
-15 -60 -38 -85 -51 -88 -45 -133 -71 -149 -85 -9 -8 -37 -24 -62 -35 -26 -11
-49 -24 -53 -30 -3 -6 -30 -23 -59 -37 -28 -14 -79 -41 -112 -59 -58 -31 -61
-32 -103 -18 -23 8 -51 25 -61 38 -11 14 -45 33 -77 44 -31 11 -64 26 -72 32
-10 9 -54 13 -137 13 -99 0 -126 -3 -141 -16 -11 -9 -37 -22 -59 -29 -22 -7
-59 -21 -82 -32 l-41 -19 -42 30 c-24 17 -52 40 -64 51 -50 47 -198 198 -226
230 -64 73 -98 116 -109 137 -6 13 -21 33 -32 45 -56 64 -89 106 -89 115 0 6
-13 27 -30 48 -16 20 -32 46 -36 58 -3 12 -16 33 -29 47 -12 14 -28 43 -35 65
-7 22 -23 51 -35 65 -13 14 -27 42 -30 63 -4 21 -18 50 -32 65 -13 14 -26 36
-28 49 -3 13 -8 35 -11 51 -3 15 -16 43 -29 62 -13 19 -29 64 -35 100 -6 36
-21 80 -32 98 -13 21 -24 63 -29 112 -5 44 -15 99 -23 122 -28 85 -26 97 24
124 77 40 181 135 204 185 9 19 26 50 38 69 22 33 28 104 28 310 0 6 19 20 43
30 23 11 56 29 72 40 17 11 37 20 46 20 9 0 34 12 55 26 21 15 56 33 77 40 21
7 50 22 65 32 15 11 44 25 64 31 20 7 48 21 62 32 13 11 43 26 65 34 22 8 57
25 78 39 21 15 45 26 54 26 9 0 34 12 55 26 21 15 55 32 76 40 21 7 54 24 75
38 51 35 120 37 127 4z m3009 -8 c14 -11 44 -27 67 -35 23 -8 53 -23 66 -34
14 -11 47 -27 74 -36 27 -9 54 -22 60 -30 6 -8 33 -21 60 -30 27 -9 54 -23 61
-31 6 -8 37 -22 68 -30 31 -9 68 -27 83 -40 15 -12 42 -25 60 -29 18 -4 47
-17 63 -30 17 -12 48 -28 69 -35 31 -10 103 -56 135 -86 3 -2 3 -49 2 -103 -2
-74 2 -108 14 -137 9 -22 23 -60 31 -86 27 -89 128 -192 232 -238 l45 -20 -7
-113 c-5 -91 -11 -121 -31 -159 -13 -25 -29 -77 -35 -115 -6 -37 -20 -80 -31
-96 -11 -15 -25 -53 -32 -83 -7 -32 -21 -65 -34 -78 -12 -12 -25 -41 -29 -65
-4 -23 -19 -61 -35 -84 -15 -23 -31 -55 -34 -70 -4 -16 -18 -35 -30 -43 -13
-9 -26 -30 -29 -50 -4 -19 -20 -49 -35 -67 -16 -17 -31 -42 -35 -54 -4 -13
-22 -41 -39 -63 -18 -22 -45 -58 -62 -81 -16 -22 -45 -56 -62 -75 -18 -19 -33
-39 -33 -44 0 -12 -303 -318 -340 -343 -43 -30 -83 -22 -245 48 -32 14 -60 16
-142 13 -56 -3 -108 -10 -115 -16 -7 -5 -38 -20 -68 -32 -30 -12 -64 -29 -75
-39 -11 -10 -37 -28 -58 -40 -36 -22 -39 -22 -71 -7 -19 9 -38 16 -44 16 -5 0
-26 13 -47 30 -20 16 -46 32 -58 36 -12 3 -36 17 -53 29 -16 13 -48 31 -69 40
-22 9 -49 24 -60 34 -20 18 -87 57 -157 92 -20 11 -40 24 -44 30 -3 6 -30 22
-59 35 -29 12 -56 28 -60 34 -4 6 -30 22 -58 36 -128 61 -163 94 -125 117 13
8 46 28 74 45 28 18 55 32 60 32 6 0 28 13 50 29 21 16 50 32 64 36 14 4 36
18 50 31 14 13 45 30 70 39 24 9 54 24 65 34 11 11 36 26 55 35 19 9 64 34
100 56 145 88 195 97 251 44 14 -13 43 -34 65 -45 21 -12 53 -29 69 -38 42
-22 297 -23 336 -1 15 8 46 26 70 39 54 28 140 115 171 172 13 23 30 53 38 68
11 20 15 60 15 171 0 133 -2 148 -22 180 -13 19 -31 53 -42 75 -11 22 -37 55
-58 73 -21 18 -53 46 -71 61 -18 16 -52 34 -76 41 -25 7 -55 23 -68 37 -22 24
-23 31 -26 238 -2 147 1 226 9 252 7 23 14 138 18 284 5 224 8 249 25 268 24
26 27 26 59 1z m-4382 -312 c58 -10 73 -17 80 -34 4 -12 17 -25 29 -29 13 -4
29 -25 40 -51 11 -24 29 -57 41 -73 31 -43 24 -149 -15 -205 -14 -22 -29 -49
-32 -61 -3 -12 -21 -29 -40 -38 -19 -9 -34 -21 -34 -26 0 -18 -82 -41 -150
-41 -100 0 -165 16 -185 46 -9 14 -27 29 -41 34 -13 5 -24 16 -24 25 0 17 -15
46 -43 84 -13 18 -17 43 -17 105 0 76 2 84 30 116 16 19 29 43 30 53 0 9 7 17
15 17 8 0 24 13 36 30 22 29 68 45 159 53 19 2 38 5 42 5 4 1 40 -4 79 -10z
m2937 -8 c30 -7 56 -19 59 -27 3 -7 18 -20 34 -29 16 -8 29 -20 29 -28 0 -7
13 -39 29 -72 44 -89 46 -114 18 -176 -14 -29 -31 -70 -38 -91 -9 -24 -24 -44
-41 -53 -15 -8 -32 -22 -37 -32 -14 -27 -77 -42 -167 -42 -106 1 -148 12 -183
49 -16 17 -34 31 -40 31 -6 0 -11 6 -11 13 0 6 -14 32 -30 56 -28 42 -30 49
-30 147 l0 103 68 69 c74 77 83 81 186 92 76 8 75 8 154 -10z m2901 5 c54 -13
70 -21 79 -40 6 -14 22 -27 34 -30 18 -5 28 -21 46 -80 12 -40 22 -97 22 -125
0 -72 -38 -178 -70 -198 -14 -9 -42 -29 -63 -45 -44 -34 -114 -44 -222 -32
-51 5 -73 12 -89 29 -11 13 -31 28 -43 35 -13 6 -23 18 -23 25 0 7 -13 30 -30
51 -29 37 -30 40 -30 149 l0 111 63 66 c68 74 80 79 182 89 39 4 71 8 73 9 2
0 34 -6 71 -14z m-3322 -636 c15 -6 37 -18 48 -28 29 -26 168 -72 234 -78 38
-3 70 0 101 12 25 9 70 25 101 35 31 10 69 30 84 44 24 22 34 25 69 20 22 -4
52 -16 66 -29 14 -12 54 -42 90 -68 101 -72 138 -100 173 -128 18 -14 43 -32
57 -39 36 -19 85 -59 134 -109 l43 -43 -4 -132 c-5 -179 -13 -203 -79 -232
-29 -13 -55 -28 -59 -34 -4 -6 -28 -21 -53 -34 -78 -39 -167 -89 -172 -97 -3
-5 -31 -19 -62 -33 -31 -14 -59 -30 -63 -36 -4 -6 -30 -22 -58 -36 -29 -13
-77 -40 -107 -59 -30 -19 -75 -44 -99 -55 -23 -11 -54 -29 -68 -40 -32 -25
-92 -26 -124 -2 -33 24 -163 102 -172 102 -4 0 -30 16 -58 35 -28 19 -57 35
-63 35 -7 0 -23 11 -36 24 -12 14 -35 28 -51 31 -15 4 -45 20 -65 36 -20 16
-42 29 -49 29 -7 0 -29 13 -49 29 -20 16 -50 32 -65 36 -16 3 -38 16 -50 29
-12 13 -43 33 -70 46 -58 27 -65 47 -55 157 4 43 1 111 -7 169 l-13 97 25 19
c13 10 35 29 48 41 13 12 38 31 56 42 68 42 120 78 123 86 2 5 20 18 40 31 20
12 64 43 97 68 97 75 109 79 162 59z m-837 -318 c24 -17 51 -31 60 -31 11 0
20 -10 23 -28 3 -15 20 -45 37 -67 31 -39 32 -42 28 -132 -3 -78 -6 -95 -25
-115 -13 -14 -23 -29 -23 -34 0 -21 -83 -95 -123 -109 -79 -28 -139 -29 -219
-5 -90 27 -126 59 -173 157 -29 60 -35 84 -35 136 0 52 4 67 21 83 12 10 29
35 39 55 23 43 114 115 155 122 17 3 66 4 111 2 72 -2 85 -6 124 -34z m2640 7
c81 -55 100 -73 111 -107 6 -20 22 -55 35 -78 31 -54 30 -80 -6 -163 -16 -38
-30 -71 -30 -75 0 -18 -80 -82 -120 -98 -78 -29 -129 -31 -216 -8 -83 23 -123
51 -151 106 -9 17 -24 39 -35 49 -18 17 -20 29 -16 116 3 90 6 99 36 140 18
24 32 52 32 62 0 10 7 18 17 18 9 0 30 12 45 27 34 32 86 43 188 38 60 -2 83
-8 110 -27z m-1433 -1142 c15 -13 48 -33 73 -45 60 -28 121 -66 140 -85 9 -8
36 -24 60 -36 25 -11 74 -38 110 -60 36 -21 85 -50 110 -63 25 -13 63 -35 84
-50 21 -15 44 -27 51 -27 7 0 18 -7 26 -16 7 -9 38 -29 68 -46 150 -80 174
-95 187 -118 15 -29 18 -164 4 -224 -10 -45 -19 -52 -75 -62 -22 -3 -60 -17
-85 -29 -26 -13 -75 -26 -115 -30 -40 -4 -93 -18 -124 -33 -47 -21 -76 -26
-230 -36 -204 -12 -451 -13 -671 -2 -174 8 -246 20 -271 42 -13 12 -138 34
-195 34 -6 0 -27 11 -46 24 -20 13 -54 27 -77 31 -59 10 -69 31 -72 150 -5
147 0 159 74 196 110 54 163 84 192 107 15 12 33 22 41 22 7 0 25 11 41 24 15
13 44 28 64 35 20 6 46 22 59 36 12 13 36 27 51 30 16 4 42 18 58 31 16 13 48
31 72 39 24 9 52 23 62 33 10 9 36 26 57 37 98 51 146 78 160 90 15 13 41 22
72 24 9 0 29 -10 45 -23z m-1408 -452 c18 -4 56 -30 92 -63 56 -52 62 -62 80
-131 20 -77 19 -103 -8 -199 -27 -100 -122 -165 -253 -172 -36 -3 -132 17
-162 32 -27 14 -75 61 -101 100 -31 46 -38 96 -30 208 6 87 7 93 35 108 15 10
28 21 28 26 0 4 18 25 41 47 29 27 52 40 78 43 64 7 168 7 200 1z m3009 -72
l70 -70 7 -71 c12 -117 -1 -184 -44 -236 -55 -66 -91 -89 -173 -108 -73 -17
-73 -17 -157 7 -66 19 -90 31 -108 55 -14 17 -31 31 -38 31 -8 0 -19 26 -29
69 -19 83 -20 113 -5 197 10 57 16 67 75 127 74 75 79 77 230 72 l102 -3 70
-70z"/>
</g>
</svg>
