<?xml version="1.0" encoding="UTF-8"?>
<svg width="93px" height="88px" viewBox="0 0 93 88" version="1.1" xmlns="http://www.w3.org/2000/svg" xmlns:xlink="http://www.w3.org/1999/xlink">
    <!-- Generator: Sketch 57.1 (83088) - https://sketch.com -->
    <title>icon</title>
    <desc>Created with Sketch.</desc>
    <defs>
        <polygon id="path-1" points="0.7454 0.0002 10.7454 0.0002 10.7454 10 0.7454 10"></polygon>
        <polygon id="path-3" points="0.0369 0.238 10.0369 0.238 10.0369 10.2375 0.0369 10.2375"></polygon>
        <polygon id="path-5" points="0.2752 0.238 10.2752 0.238 10.2752 10.2375 0.2752 10.2375"></polygon>
    </defs>
    <g id="Designs" stroke="none" stroke-width="1" fill="none" fill-rule="evenodd">
        <g id="Concord-Homepage" transform="translate(-314.000000, -1251.000000)">
            <g id="Use-Cases" transform="translate(250.000000, 1112.000000)">
                <g id="1" transform="translate(0.000000, 72.000000)">
                    <g id="icon">
                        <g transform="translate(64.000000, 66.000000)">
                            <path d="M19.4706,63.5697 C16.7016,63.5697 14.4426,65.8297 14.4426,68.5977 C14.4426,69.9537 15.0076,71.2537 15.9106,72.1577 C16.8146,73.0617 18.0576,73.5697 19.4706,73.5697 C22.1826,73.5697 24.4426,71.3667 24.4426,68.5977 C24.4426,67.2417 23.8776,65.9997 22.9736,65.0947 C22.0696,64.1347 20.8266,63.5697 19.4706,63.5697" id="Fill-1" fill="#FFFFFF"></path>
                            <path d="M77.1586,63.5697 C74.3896,63.5697 72.1306,65.8297 72.1306,68.5977 C72.1306,69.9537 72.6956,71.2537 73.5986,72.1577 C74.5026,73.0617 75.7456,73.5697 77.1586,73.5697 C79.8706,73.5697 82.1306,71.3667 82.1306,68.5977 C82.1306,67.2417 81.5656,65.9997 80.6616,65.0947 C79.7576,64.1347 78.5136,63.5697 77.1586,63.5697" id="Fill-3" fill="#FFFFFF"></path>
                            <g id="Group-7" transform="translate(41.000000, 78.762400)">
                                <mask id="mask-2" fill="white">
                                    <use xlink:href="#path-1"></use>
                                </mask>
                                <g id="Clip-6"></g>
                                <path d="M5.7734,0.0002 C3.0044,0.0002 0.7454,2.2602 0.7454,5.0282 C0.7454,6.3842 1.3104,7.6832 2.2134,8.5872 C3.1174,9.4912 4.3604,10.0002 5.7734,10.0002 C8.4854,10.0002 10.7454,7.7962 10.7454,5.0282 C10.7454,3.6722 10.1804,2.4292 9.2764,1.5252 C8.3724,0.5652 7.1294,0.0002 5.7734,0.0002" id="Fill-5" fill="#FFFFFF" mask="url(#mask-2)"></path>
                            </g>
                            <path d="M41.1381,49.9725 C43.1721,49.9725 44.9801,48.7295 45.7141,46.9215 C45.9971,46.3565 46.1101,45.6785 46.1101,45.0005 C46.1101,43.6445 45.6011,42.4015 44.6981,41.4975 C43.7931,40.5375 42.4941,39.9725 41.1381,39.9725 C38.3701,39.9725 36.1101,42.2325 36.1101,45.0005 C36.1101,46.3565 36.6751,47.6565 37.6351,48.5595 C38.5391,49.4635 39.7831,49.9725 41.1381,49.9725" id="Fill-8" fill="#FFFFFF"></path>
                            <path d="M6.7895,39.9725 C4.0215,39.9725 1.7615,42.2325 1.7615,45.0005 C1.7615,46.3565 2.3265,47.6565 3.2875,48.5595 C4.1905,49.4635 5.4345,49.9725 6.7895,49.9725 C8.8235,49.9725 10.6315,48.7295 11.3665,46.9215 C11.6485,46.3565 11.7615,45.6785 11.7615,45.0005 C11.7615,43.6445 11.2525,42.4015 10.3495,41.4975 C9.4455,40.5375 8.1455,39.9725 6.7895,39.9725" id="Fill-10" fill="#FFFFFF"></path>
                            <path d="M9.6044,30.6278 C9.8874,30.0628 10.0004,29.3848 10.0004,28.7068 C10.0004,27.3518 9.4914,26.1078 8.5874,25.2048 C7.6834,24.2438 6.3844,23.6788 5.0284,23.6788 C2.2594,23.6788 0.0004,25.9388 0.0004,28.7068 C0.0004,30.0628 0.5644,31.3628 1.5254,32.2668 C2.4294,33.1698 3.6724,33.6788 5.0284,33.6788 C7.0624,33.6788 8.8704,32.4358 9.6044,30.6278" id="Fill-12" fill="#FFFFFF"></path>
                            <g id="Group-16" transform="translate(20.000000, 0.762400)">
                                <mask id="mask-4" fill="white">
                                    <use xlink:href="#path-3"></use>
                                </mask>
                                <g id="Clip-15"></g>
                                <path d="M5.0649,10.2375 C7.0989,10.2375 8.9069,8.9945 9.6409,7.1865 C9.9239,6.6215 10.0369,5.9445 10.0369,5.2655 C10.0369,3.9095 9.5279,2.6675 8.6249,1.7625 C7.7199,0.8025 6.4209,0.2375 5.0649,0.2375 C2.2959,0.2375 0.0369,2.4975 0.0369,5.2655 C0.0369,6.6215 0.6019,7.9215 1.5619,8.8255 C2.4659,9.7295 3.7089,10.2375 5.0649,10.2375" id="Fill-14" fill="#FFFFFF" mask="url(#mask-4)"></path>
                            </g>
                            <g id="Group-19" transform="translate(66.000000, 0.762400)">
                                <mask id="mask-6" fill="white">
                                    <use xlink:href="#path-5"></use>
                                </mask>
                                <g id="Clip-18"></g>
                                <path d="M5.3032,10.2375 C7.3372,10.2375 9.1452,8.9945 9.8802,7.1865 C10.1622,6.6215 10.2752,5.9445 10.2752,5.2655 C10.2752,3.9095 9.7662,2.6675 8.8632,1.7625 C7.9592,0.8025 6.6592,0.2375 5.3032,0.2375 C2.5352,0.2375 0.2752,2.4975 0.2752,5.2655 C0.2752,6.6215 0.8402,7.9215 1.8012,8.8255 C2.7042,9.7295 3.9482,10.2375 5.3032,10.2375" id="Fill-17" fill="#FFFFFF" mask="url(#mask-6)"></path>
                            </g>
                            <path d="M91.5717,41.4979 C90.6677,40.5379 89.3677,39.9729 88.0117,39.9729 C85.2437,39.9729 82.9837,42.2319 82.9837,45.0009 C82.9837,46.3559 83.5487,47.6559 84.5097,48.5599 C85.4137,49.4639 86.6557,49.9729 88.0117,49.9729 C90.0467,49.9729 91.8537,48.7289 92.5887,46.9209 C92.8707,46.3559 92.9837,45.6789 92.9837,45.0009 C92.9837,43.6449 92.4757,42.4019 91.5717,41.4979" id="Fill-20" fill="#FFFFFF"></path>
                            <polygon id="Fill-22" fill="#FFFFFF" points="35.4955 48.3685 22.9735 61.3045 24.7685 63.0435 37.2915 50.1075"></polygon>
                            <polygon id="Fill-24" fill="#FFFFFF" points="71.9091 45.601 81.1181 45.601 81.1181 43.101 72.9351 43.101 72.5481 42.718 72.5481 12.853 70.0481 12.853 70.0481 40.251 56.7421 27.118 25.2291 27.118 25.1651 27.054 26.3791 27.054 26.3791 13.074 23.8791 13.074 23.8791 27.054 24.8771 27.054 24.8121 27.118 12.1181 27.118 12.1181 29.618 22.3121 29.618 11.1741 40.756 12.9411 42.524 25.3541 30.111 36.0551 40.812 37.8231 39.045 28.3961 29.618 55.7161 29.618 69.9621 43.679 46.1261 67.325 26.5511 67.325 26.5511 69.825 45.3461 69.825 45.3001 76.698 47.8001 76.715 47.8461 69.825 70.5301 69.825 70.5301 67.325 49.6761 67.325 71.7411 45.435"></polygon>
                        </g>
                    </g>
                </g>
            </g>
        </g>
    </g>
</svg>