<?xml version="1.0" encoding="UTF-8"?>
<svg width="95px" height="95px" viewBox="0 0 95 95" version="1.1" xmlns="http://www.w3.org/2000/svg" xmlns:xlink="http://www.w3.org/1999/xlink">
    <!-- Generator: Sketch 57.1 (83088) - https://sketch.com -->
    <title>icon</title>
    <desc>Created with Sketch.</desc>
    <g id="Designs" stroke="none" stroke-width="1" fill="none" fill-rule="evenodd">
        <g id="Concord-Homepage" transform="translate(-312.000000, -1746.000000)" fill="#FFFFFF">
            <g id="Use-Cases" transform="translate(250.000000, 1112.000000)">
                <g id="3" transform="translate(0.000000, 572.000000)">
                    <g id="Bitmap">
                        <g id="icon" transform="translate(62.000000, 62.000000)">
                            <polygon id="Fill-1" points="92.5002 88.7504 92.5002 92.4994 88.7502 92.4994 88.7502 95.0004 95.0002 95.0004 95.0002 88.7504"></polygon>
                            <path d="M73.282,95 L83.594,95 L83.594,92.5 L73.282,92.5 L73.282,95 Z M57.812,95 L68.124,95 L68.124,92.5 L57.812,92.5 L57.812,95 Z M42.344,95 L52.656,95 L52.656,92.5 L42.344,92.5 L42.344,95 Z M26.875,95 L37.187,95 L37.187,92.5 L26.875,92.5 L26.875,95 Z M11.407,95 L21.719,95 L21.719,92.5 L11.407,92.5 L11.407,95 Z" id="Fill-2"></path>
                            <polygon id="Fill-3" points="0 88.7504 0 95.0004 6.25 95.0004 6.25 92.4994 2.5 92.4994 2.5 88.7504"></polygon>
                            <path d="M0,21.718 L2.5,21.718 L2.5,11.406 L0,11.406 L0,21.718 Z M0,37.188 L2.5,37.188 L2.5,26.876 L0,26.876 L0,37.188 Z M0,52.656 L2.5,52.656 L2.5,42.344 L0,42.344 L0,52.656 Z M0,68.125 L2.5,68.125 L2.5,57.813 L0,57.813 L0,68.125 Z M0,83.593 L2.5,83.593 L2.5,73.281 L0,73.281 L0,83.593 Z" id="Fill-4"></path>
                            <polygon id="Fill-5" points="0 -0.0004 0 6.2496 2.5 6.2496 2.5 2.4996 6.25 2.4996 6.25 -0.0004"></polygon>
                            <path d="M73.282,2.5 L83.594,2.5 L83.594,0 L73.282,0 L73.282,2.5 Z M57.812,2.5 L68.124,2.5 L68.124,0 L57.812,0 L57.812,2.5 Z M42.344,2.5 L52.656,2.5 L52.656,0 L42.344,0 L42.344,2.5 Z M26.875,2.5 L37.187,2.5 L37.187,0 L26.875,0 L26.875,2.5 Z M11.407,2.5 L21.719,2.5 L21.719,0 L11.407,0 L11.407,2.5 Z" id="Fill-6"></path>
                            <polygon id="Fill-7" points="88.7499 -0.0004 88.7499 2.4996 92.4999 2.4996 92.4999 6.2496 94.9999 6.2496 94.9999 -0.0004"></polygon>
                            <path d="M92.5,21.718 L95,21.718 L95,11.406 L92.5,11.406 L92.5,21.718 Z M92.5,37.188 L95,37.188 L95,26.876 L92.5,26.876 L92.5,37.188 Z M92.5,52.656 L95,52.656 L95,42.344 L92.5,42.344 L92.5,52.656 Z M92.5,68.125 L95,68.125 L95,57.813 L92.5,57.813 L92.5,68.125 Z M92.5,83.593 L95,83.593 L95,73.281 L92.5,73.281 L92.5,83.593 Z" id="Fill-8"></path>
                            <polygon id="Fill-9" points="67.001 30.1987 75.144 22.0887 76.725 23.6757 78.545 16.9367 71.799 18.7297 73.38 20.3177 65.237 28.4277"></polygon>
                            <polygon id="Fill-10" points="75.1436 73.084 67.2226 65.194 65.4586 66.966 73.3796 74.855 71.7986 76.442 78.5446 78.235 76.7246 71.497"></polygon>
                            <polygon id="Fill-11" points="24.4912 18.7295 17.7452 16.9375 19.5642 23.6755 21.1462 22.0875 29.3922 30.3015 31.1562 28.5305 22.9102 20.3165"></polygon>
                            <polygon id="Fill-12" points="29.2041 65.0571 21.1461 73.0841 19.5641 71.4961 17.7451 78.2351 24.4911 76.4421 22.9101 74.8551 30.9681 66.8281"></polygon>
                            <path d="M40.7142,36.8528 L40.1442,34.7308 L40.7142,36.8528 Z" id="Fill-13"></path>
                            <g id="Group-38" transform="translate(17.000000, 29.000000)">
                                <path d="M23.7129,8.54 C23.4089,8.54 23.1319,8.337 23.0499,8.031 L22.4819,5.909 C22.3829,5.542 22.6009,5.165 22.9669,5.067 C23.3329,4.967 23.7099,5.186 23.8089,5.553 L24.3769,7.675 C24.4759,8.041 24.2579,8.418 23.8919,8.517 C23.8319,8.533 23.7719,8.54 23.7129,8.54" id="Fill-14"></path>
                                <path d="M12.2402,11.8994 L13.7942,13.4534" id="Fill-16"></path>
                                <path d="M13.7939,14.1401 C13.6179,14.1401 13.4419,14.0731 13.3079,13.9391 L11.7549,12.3851 C11.4859,12.1171 11.4859,11.6821 11.7549,11.4141 C12.0229,11.1451 12.4579,11.1451 12.7259,11.4141 L14.2789,12.9671 C14.5479,13.2361 14.5479,13.6701 14.2789,13.9391 C14.1459,14.0731 13.9699,14.1401 13.7939,14.1401" id="Fill-18"></path>
                                <path d="M53.4922,22.8389 L51.3692,23.4079" id="Fill-20"></path>
                                <path d="M51.3691,24.0952 C51.0651,24.0952 50.7881,23.8922 50.7061,23.5852 C50.6071,23.2192 50.8251,22.8422 51.1911,22.7442 L53.3131,22.1752 C53.6811,22.0752 54.0571,22.2952 54.1551,22.6612 C54.2541,23.0272 54.0361,23.4042 53.6701,23.5022 L51.5481,24.0712 C51.4881,24.0872 51.4281,24.0952 51.3691,24.0952" id="Fill-22"></path>
                                <path d="M6.6143,20.9219 L8.7373,21.4899" id="Fill-24"></path>
                                <path d="M8.7373,22.1777 C8.6783,22.1777 8.6193,22.1697 8.5593,22.1537 L6.4363,21.5857 C6.0703,21.4877 5.8523,21.1107 5.9513,20.7437 C6.0493,20.3777 6.4243,20.1597 6.7923,20.2587 L8.9153,20.8267 C9.2813,20.9247 9.4993,21.3017 9.4003,21.6687 C9.3183,21.9747 9.0413,22.1777 8.7373,22.1777" id="Fill-26"></path>
                                <path d="M47.2666,11.8994 L45.7126,13.4534" id="Fill-28"></path>
                                <path d="M45.7129,14.1401 C45.5369,14.1401 45.3609,14.0731 45.2279,13.9391 C44.9589,13.6701 44.9589,13.2361 45.2279,12.9671 L46.7809,11.4141 C47.0499,11.1451 47.4839,11.1451 47.7529,11.4141 C48.0219,11.6821 48.0219,12.1171 47.7529,12.3851 L46.1989,13.9391 C46.0649,14.0731 45.8889,14.1401 45.7129,14.1401" id="Fill-30"></path>
                                <path d="M36.0723,5.2515 L35.5033,7.3745" id="Fill-32"></path>
                                <path d="M35.5039,8.061 C35.4449,8.061 35.3849,8.054 35.3249,8.038 C34.9589,7.939 34.7409,7.562 34.8399,7.196 L35.4079,5.074 C35.5069,4.707 35.8819,4.49 36.2499,4.588 C36.6159,4.686 36.8339,5.063 36.7349,5.43 L36.1669,7.552 C36.0849,7.858 35.8069,8.061 35.5039,8.061" id="Fill-34"></path>
                                <path d="M33.3945,28.5352 L45.1825,23.6702 C45.3875,23.5982 45.4515,23.2522 45.3255,22.8982 C45.1995,22.5452 44.9305,22.3182 44.7255,22.3912 L31.1195,26.5182 L31.1645,26.6332 C30.6855,26.3812 30.1495,26.2252 29.5725,26.2252 C28.0715,26.2252 26.8085,27.1942 26.3405,28.5362 C19.7345,28.5422 11.9655,28.5672 2.9355,28.6212 C3.5945,14.4992 15.2905,3.2122 29.5735,3.2122 C43.8535,3.2122 55.5475,14.4952 56.2115,28.6142 C56.2065,28.6602 49.1195,28.5492 33.3945,28.5352 L33.3945,28.5352 Z M58.7415,29.8792 C58.7415,29.8212 58.7415,29.7622 58.7405,29.7042 L58.7395,29.3562 L58.7365,29.3522 C58.4555,13.5122 45.4805,0.7122 29.5735,0.7122 C13.4905,0.7122 0.4065,13.7962 0.4065,29.8792 L0.4065,31.1372 L58.7285,31.1052 L58.7705,30.5682 L58.7415,29.8792 Z" id="Fill-36"></path>
                            </g>
                        </g>
                    </g>
                </g>
            </g>
        </g>
    </g>
</svg>