<?xml version="1.0" encoding="UTF-8"?>
<svg width="94px" height="90px" viewBox="0 0 94 90" version="1.1" xmlns="http://www.w3.org/2000/svg" xmlns:xlink="http://www.w3.org/1999/xlink">
    <!-- Generator: Sketch 57.1 (83088) - https://sketch.com -->
    <title>Group 9</title>
    <desc>Created with Sketch.</desc>
    <defs>
        <polygon id="path-1" points="0 89.0186 94 89.0186 94 -0.0004 0 -0.0004"></polygon>
    </defs>
    <g id="Designs" stroke="none" stroke-width="1" fill="none" fill-rule="evenodd">
        <g id="Concord-Homepage" transform="translate(-1033.000000, -1499.000000)">
            <g id="Use-Cases" transform="translate(250.000000, 1112.000000)">
                <g id="2" transform="translate(0.000000, 322.000000)">
                    <g id="Group-9" transform="translate(783.000000, 65.000000)">
                        <path d="M62.8053,89.0186 L32.1233,89.0186 C31.2483,89.0186 30.4873,88.4506 30.2273,87.6056 C29.9633,86.7476 30.2823,85.8356 31.0193,85.3356 C32.5983,84.2676 36.6183,82.6686 38.3023,82.0206 L39.9703,69.3956 L42.4493,69.7236 L40.5843,83.8316 L39.8823,84.0946 C38.7063,84.5356 35.9843,85.6056 34.0663,86.5186 L60.8803,86.5186 C58.9753,85.6076 56.2373,84.5376 55.0493,84.0956 L54.3153,83.8226 L52.9633,69.6786 L55.4513,69.4406 L56.6553,82.0306 C58.3723,82.6886 62.4073,84.2876 63.9403,85.3586 C64.6603,85.8636 64.9643,86.7706 64.6983,87.6176 C64.4333,88.4556 63.6723,89.0186 62.8053,89.0186" id="Fill-1" fill="#FFFFFF"></path>
                        <mask id="mask-2" fill="white">
                            <use xlink:href="#path-1"></use>
                        </mask>
                        <g id="Clip-4"></g>
                        <polygon id="Fill-3" fill="#FFFFFF" mask="url(#mask-2)" points="10.626 58.5836 84.836 58.5836 84.836 56.0836 10.626 56.0836"></polygon>
                        <path d="M31.6256,37.7081 L38.6536,44.8181 L40.5266,42.9241 L33.4976,35.8131 L36.1796,33.1011 L26.3026,30.4241 L28.9486,40.4151 L31.6256,37.7081 Z M38.6536,46.5961 L31.6256,39.4851 L28.3006,42.8491 L24.5406,28.6501 L38.5756,32.4561 L35.2556,35.8131 L42.2846,42.9241 L38.6536,46.5961 Z" id="Fill-5" fill="#FFFFFF" mask="url(#mask-2)"></path>
                        <path d="M91.4996,29.4151 L91.4996,61.9921 C91.4996,62.9641 90.4066,63.7841 89.1116,63.7841 L4.7186,63.7841 C3.5166,63.7841 2.4996,63.0321 2.4996,62.1421 L2.4996,15.4051 C2.4996,14.5271 3.5046,13.7841 4.6926,13.7841 L51.6036,13.7841 C51.7496,12.9341 51.9436,12.1001 52.1856,11.2841 L4.6926,11.2841 C2.1016,11.2841 -0.0004,13.1301 -0.0004,15.4051 L-0.0004,62.1421 C-0.0004,64.4301 2.1126,66.2841 4.7186,66.2841 L89.1116,66.2841 C91.8116,66.2841 93.9996,64.3631 93.9996,61.9921 L93.9996,24.1521 C93.4006,26.0301 92.5546,27.7961 91.4996,29.4151" id="Fill-6" fill="#FFFFFF" mask="url(#mask-2)"></path>
                        <path d="M73.1588,2.5 C64.8878,2.5 58.1588,9.229 58.1588,17.5 C58.1588,25.771 64.8878,32.5 73.1588,32.5 C81.4298,32.5 88.1588,25.771 88.1588,17.5 C88.1588,9.229 81.4298,2.5 73.1588,2.5 M73.1588,35 C63.5098,35 55.6588,27.149 55.6588,17.5 C55.6588,7.851 63.5098,0 73.1588,0 C82.8078,0 90.6588,7.851 90.6588,17.5 C90.6588,27.149 82.8078,35 73.1588,35" id="Fill-7" fill="#FFFFFF" mask="url(#mask-2)"></path>
                        <polygon id="Fill-8" fill="#FFFFFF" mask="url(#mask-2)" points="70.9791 23.3731 63.9541 16.3481 65.7211 14.5801 70.9791 19.8381 80.0271 10.7911 81.7941 12.5591"></polygon>
                    </g>
                </g>
            </g>
        </g>
    </g>
</svg>