<?xml version="1.0" encoding="UTF-8"?>
<svg width="77px" height="39px" viewBox="0 0 77 39" version="1.1" xmlns="http://www.w3.org/2000/svg" xmlns:xlink="http://www.w3.org/1999/xlink">
    <!-- Generator: Sketch 57.1 (83088) - https://sketch.com -->
    <title>icon</title>
    <desc>Created with Sketch.</desc>
    <g id="Designs" stroke="none" stroke-width="1" fill="none" fill-rule="evenodd">
        <g id="Concord-Homepage" transform="translate(-683.000000, -559.000000)" fill="#0091DA">
            <g id="Callout-2" transform="translate(569.000000, 512.000000)">
                <g id="icon" transform="translate(114.000000, 47.000000)">
                    <path d="M38.3374871,2.03609446 C18.9945898,2.03609446 3.19449681,17.4990102 2.65045237,36.7132264 C6.77802305,36.6887932 22.5398375,36.7067109 38.1672696,36.7132264 C74.0114909,36.7270718 74.017192,36.7132264 74.0015688,36.7132264 C73.434869,17.5185567 57.6657246,2.03609446 38.3374871,2.03609446 L38.3374871,2.03609446 Z M0.600512467,38.7615374 L0.600512467,37.7369747 C0.600512467,16.9289038 17.5294162,0 38.3374871,0 C59.0038459,0 75.842347,16.6959745 76.0720185,37.3093948 L76.0728329,37.3093948 L76.0728329,37.3737354 C76.0736474,37.4942722 76.0744618,37.6164379 76.0744618,37.7369747 C76.0744618,37.7369747 76.1192559,38.7892283 76.0687607,38.760723 C76.0850495,38.8087748 29.9968298,38.5823611 1.62426076,38.7550219 L0.600512467,38.7615374 Z" id="Fill-1"></path>
                    <path d="M29.8813425,5.97463413 L30.6289964,8.76571241" id="Fill-3"></path>
                    <path d="M30.6289964,9.67022701 C30.2299219,9.67022701 29.8650538,9.40390586 29.7567335,8.99994472 L29.0090797,6.20886644 C28.8795841,5.72671927 29.1654517,5.2315411 29.6475989,5.10204549 C30.1289316,4.97010657 30.6249242,5.25923198 30.7544198,5.74137915 L31.5020737,8.53245743 C31.6315693,9.01379016 31.3457017,9.50978277 30.8635545,9.63846394 C30.7853685,9.66045376 30.706368,9.67022701 30.6289964,9.67022701" id="Fill-5"></path>
                    <path d="M15.5388488,14.0887963 L17.5822732,16.1322207" id="Fill-7"></path>
                    <path d="M17.5821103,17.0355951 C17.35081,17.0355951 17.1203241,16.9476358 16.9435911,16.7709028 L14.9001667,14.7274784 C14.5467007,14.3748269 14.5467007,13.8030915 14.9001667,13.4496255 C15.2528183,13.096974 15.8245536,13.096974 16.1780196,13.4496255 L18.221444,15.4930499 C18.5740956,15.8465159 18.5740956,16.4182513 18.221444,16.7709028 C18.044711,16.9476358 17.8134107,17.0355951 17.5821103,17.0355951" id="Fill-9"></path>
                    <path d="M69.7963682,28.4770614 L67.0052899,29.2247153" id="Fill-11"></path>
                    <path d="M67.0047198,30.129067 C66.6056453,30.129067 66.2407771,29.8627459 66.1324569,29.4587847 C66.0029613,28.9766375 66.288829,28.4814594 66.7709761,28.3519638 L69.5628688,27.6043099 C70.045016,27.4731854 70.5401942,27.7614964 70.6696898,28.2436435 C70.798371,28.7249763 70.5125033,29.2209689 70.0303561,29.34965 L67.2392778,30.0981184 C67.1610918,30.1192938 67.0820914,30.129067 67.0047198,30.129067" id="Fill-13"></path>
                    <path d="M8.13968158,25.9553991 L10.9307599,26.703053" id="Fill-15"></path>
                    <path d="M10.9314114,27.607812 C10.8540398,27.607812 10.7758538,27.5972243 10.6968533,27.5760489 L7.90577505,26.828395 C7.42362788,26.6997138 7.13776022,26.2037212 7.26644139,25.7215741 C7.395937,25.2402413 7.88948629,24.9543737 8.37326234,25.0830548 L11.1651551,25.8307087 C11.6473022,25.9593899 11.9331699,26.4545681 11.8036743,26.9375297 C11.6953541,27.3406764 11.3304859,27.607812 10.9314114,27.607812" id="Fill-17"></path>
                    <path d="M61.6090695,14.0887963 L59.5656451,16.1322207" id="Fill-19"></path>
                    <path d="M59.5654007,17.0355951 C59.3341004,17.0355951 59.1036145,16.9476358 58.9268815,16.7709028 C58.5734155,16.4182513 58.5734155,15.8465159 58.9268815,15.4930499 L60.9703059,13.4496255 C61.3229575,13.096974 61.8946928,13.096974 62.2473443,13.4496255 C62.6008103,13.8030915 62.6008103,14.3748269 62.2473443,14.7274784 L60.2047344,16.7709028 C60.0280014,16.9476358 59.7967011,17.0355951 59.5654007,17.0355951" id="Fill-21"></path>
                    <path d="M46.8843601,5.34474795 L46.1367062,8.13582623" id="Fill-23"></path>
                    <path d="M46.1367062,9.04034083 C46.0593346,9.04034083 45.9811486,9.02975314 45.9021482,9.00857776 C45.420001,8.87989659 45.1341333,8.38390398 45.2636289,7.90257125 L46.0112828,5.11067853 C46.1407784,4.6293458 46.6343277,4.34347814 47.1181038,4.47215931 C47.6002509,4.60165492 47.8861186,5.09683309 47.756623,5.57898026 L47.0089691,8.37005854 C46.9006489,8.77401968 46.5357807,9.04034083 46.1367062,9.04034083" id="Fill-25"></path>
                    <path d="M58.9207732,28.6393789 C58.7546279,28.1751493 58.4019764,27.8762507 58.1323974,27.9723543 L40.2945811,33.3826645 C39.700856,33.0967968 39.0379036,32.931466 38.3350438,32.931466 C35.8396065,32.931466 33.8173574,34.953715 33.8173574,37.4491524 L42.8535446,37.4491524 C42.8535446,37.0419335 42.7949051,36.6493745 42.6939148,36.2739186 L58.7334525,29.6549828 C59.0030314,29.5588791 59.0869185,29.1044228 58.9207732,28.6393789" id="Fill-27"></path>
                </g>
            </g>
        </g>
    </g>
</svg>