<?xml version="1.0" encoding="UTF-8"?>
<svg width="65px" height="66px" viewBox="0 0 65 66" version="1.1" xmlns="http://www.w3.org/2000/svg" xmlns:xlink="http://www.w3.org/1999/xlink">
    <!-- Generator: Sketch 57.1 (83088) - https://sketch.com -->
    <title>icon</title>
    <desc>Created with Sketch.</desc>
    <defs>
        <polygon id="path-1" points="0.5 0 66.5 0 66.5 66 0.5 66"></polygon>
    </defs>
    <g id="Designs" stroke="none" stroke-width="1" fill="none" fill-rule="evenodd">
        <g id="Concord-Homepage" transform="translate(-366.000000, -553.000000)">
            <g id="Callout-1-" transform="translate(250.000000, 512.000000)">
                <g id="icon" transform="translate(115.500000, 41.000000)">
                    <mask id="mask-2" fill="white">
                        <use xlink:href="#path-1"></use>
                    </mask>
                    <g id="Clip-2"></g>
                    <path d="M46.0558283,19.4672546 L63.732348,19.4672546 L63.732348,1.76975041 L46.0558283,1.76975041 L46.0558283,19.4672546 Z M44.2881764,0 L44.2881764,1.62392298 C43.9629284,1.62109138 43.6511146,1.61825978 43.6306098,1.61825978 L33.9516547,1.61825978 C31.4974467,1.61825978 29.5,3.61807775 29.5,6.07590712 C29.5,6.75903078 29.6520181,7.41596214 29.9525189,8.02900368 C30.1059511,8.34260345 30.4198861,8.5245338 30.7465482,8.5245338 C30.8773544,8.5245338 31.0102818,8.49550989 31.1354316,8.43392258 C31.5738093,8.21872093 31.7541098,7.6885037 31.5391633,7.2496056 C31.3588628,6.88149751 31.267652,6.48648922 31.267652,6.07590712 C31.267652,4.59356418 32.4717765,3.38801019 33.9516547,3.38801019 L43.6291957,3.38801019 C43.6603064,3.38801019 43.969999,3.39084179 44.2881764,3.3936734 L44.2881764,8.75460135 C44.2584798,8.75672505 44.2351468,8.76026455 44.2415104,8.76309615 L38.0137189,8.76309615 C37.5251399,8.76309615 37.129893,9.15952025 37.129893,9.64797136 C37.129893,10.1364225 37.5251399,10.5328466 38.0137189,10.5328466 L44.2415104,10.5328466 C44.2584798,10.5328466 44.271914,10.5314308 44.2881764,10.5307229 L44.2881764,21.237005 L51.2576746,21.237005 L51.2428263,30.5423527 C51.2428263,33.000182 53.240273,35 55.694481,35 C56.3775017,35 57.0336541,34.8470936 57.6459688,34.546236 C58.0843465,34.3317422 58.265354,33.801525 58.0497005,33.3626269 C57.8354611,32.9237288 57.3058725,32.7432143 56.8674948,32.957708 C56.4998232,33.1382226 56.1052833,33.2302496 55.694481,33.2302496 C54.2146028,33.2302496 53.0104782,32.0239877 53.0104782,30.5423527 L53.0083571,21.237005 L58.3791908,21.237005 L58.3791908,26.5604142 C58.3791908,27.0488653 58.7744378,27.4452894 59.2630168,27.4452894 C59.7508887,27.4452894 60.1468428,27.0488653 60.1468428,26.5604142 L60.1468428,21.237005 L65.5,21.237005 L65.5,0 L44.2881764,0 Z" id="Fill-1" fill="#0091DA" mask="url(#mask-2)"></path>
                    <path d="M2.28901545,19.4672546 L20.1791699,19.4672546 L20.1791699,1.76975041 L2.28901545,1.76975041 L2.28901545,19.4672546 Z M2.75559067,30.5423527 C2.75559067,33.000182 4.77717813,35 7.26104717,35 C7.95232274,35 8.61640527,34.8470936 9.23612022,34.546236 C9.67979605,34.3317422 9.86299123,33.801525 9.64473135,33.3626269 C9.42790268,32.9237288 8.89119804,32.7432143 8.44823782,32.957708 C8.075407,33.1382226 7.67681436,33.2302496 7.26104717,33.2302496 C5.76328344,33.2302496 4.54460612,32.0239877 4.54460612,30.5423527 L4.54174369,21.237005 L9.97820383,21.237005 L9.97820383,26.5604142 C9.97820383,27.0488653 10.3782277,27.4452894 10.8727116,27.4452894 C11.3664798,27.4452894 11.7672193,27.0488653 11.7672193,26.5604142 L11.7672193,21.237005 L21.9681853,21.237005 L21.9681853,12.6027467 C21.9803506,12.6041625 21.9903691,12.6112415 22.00325,12.6112415 L31.9945435,12.6268153 C34.4784125,12.6268153 36.5,10.6277052 36.5,8.16987581 C36.5,7.48533635 36.3461447,6.828405 36.042012,6.21607136 C35.8244678,5.77717325 35.2884787,5.59665871 34.8448029,5.81186036 C34.4011271,6.02776991 34.2186475,6.55798714 34.4361918,6.99617734 C34.6186714,7.36357753 34.7109846,7.75858582 34.7109846,8.16987581 C34.7109846,9.65151086 33.4923072,10.8570648 31.9945435,10.8570648 L22.2608683,10.8598964 C22.2279504,10.855649 22.1370684,10.8464463 22.1041505,10.8450305 C22.0562049,10.8429068 22.0139841,10.8606043 21.9681853,10.8662675 L21.9681853,5.47419198 C22.0039657,5.47843938 22.0361679,5.49472109 22.0733795,5.49472109 C22.0833979,5.49472109 22.0934164,5.49472109 22.1041505,5.49472109 C22.1571054,5.49259739 22.208629,5.48693419 22.1986105,5.48268678 L27.9685431,5.48268678 C28.463027,5.48268678 28.8630509,5.08626269 28.8630509,4.59781158 C28.8630509,4.10865256 28.463027,3.71293637 27.9685431,3.71293637 L22.1986105,3.71293637 C22.1320592,3.71293637 22.0676546,3.71930747 22.0447552,3.72567857 C22.0168466,3.72638647 21.9946628,3.73983658 21.9681853,3.74337608 L21.9681853,0 L0.5,0 L0.5,21.237005 L2.7706184,21.237005 L2.75559067,30.5423527 Z" id="Fill-3" fill="#0091DA" mask="url(#mask-2)"></path>
                    <path d="M46.0558283,64.2501507 L63.732348,64.2501507 L63.732348,46.7516575 L46.0558283,46.7516575 L46.0558283,64.2501507 Z M62.2383286,43.9889954 L62.2383286,34.4075205 C62.2383286,31.9773297 60.2415889,30 57.7866739,30 C57.1029461,30 56.4467937,30.151187 55.8351861,30.4479614 C55.3968084,30.661443 55.2165079,31.1856979 55.4314544,31.6196605 C55.6464009,32.0529232 56.1766965,32.2314079 56.6143671,32.0193261 C56.9813316,31.8408415 57.3758716,31.7498493 57.7866739,31.7498493 C59.2665521,31.7498493 60.4706766,32.9418467 60.4706766,34.4075205 L60.4706766,43.9875955 C60.4706766,44.0302918 60.4657272,44.6133416 60.4621919,45.0018082 L55.0609545,45.0018082 C55.0956005,44.9024167 55.1182265,44.7974258 55.1146912,44.6861354 C55.11257,44.6357397 55.1090347,44.5839442 55.1019641,44.5930434 L55.1019641,38.4272743 C55.1019641,37.9443159 54.7067171,37.5523497 54.2181381,37.5523497 C53.7302661,37.5523497 53.3343121,37.9443159 53.3343121,38.4272743 L53.3343121,44.5930434 C53.3343121,44.6581378 53.3406756,44.7211323 53.3477462,44.7442304 C53.3505745,44.8359225 53.3781499,44.9192153 53.4078464,45.0018082 L44.2881764,45.0018082 L44.2881764,52.9167266 C43.9629284,52.9139269 43.6511146,52.9111271 43.6306098,52.9111271 L33.9516547,52.9111271 C31.4974467,52.9111271 29.5,54.8884568 29.5,57.3186476 C29.5,57.9933895 29.6520181,58.6436335 29.9525189,59.2497813 C30.1059511,59.5598546 30.4198861,59.7397391 30.7465482,59.7397391 C30.8773544,59.7397391 31.0095748,59.7110415 31.1354316,59.6501468 C31.5731022,59.4373651 31.7541098,58.9131103 31.5398704,58.4791476 C31.3588628,58.115179 31.267652,57.7246126 31.267652,57.3186476 C31.267652,55.8529738 32.4717765,54.6609764 33.9516547,54.6609764 L43.6291957,54.6609764 C43.6603064,54.6609764 43.969999,54.6637762 44.2881764,54.6665759 L44.2881764,59.9672195 C44.2584798,59.9693193 44.2351468,59.972819 44.2415104,59.9756188 L38.0137189,59.9756188 C37.5251399,59.9756188 37.129893,60.367585 37.129893,60.8505434 C37.129893,61.3335018 37.5251399,61.7254681 38.0137189,61.7254681 L44.2415104,61.7254681 C44.2584798,61.7254681 44.271914,61.7240682 44.2881764,61.7233683 L44.2881764,66 L65.5,66 L65.5,45.0018082 L62.2298439,45.0018082 C62.2333792,44.5958431 62.2383286,44.016993 62.2383286,43.9889954 L62.2383286,43.9889954 Z" id="Fill-4" fill="#0091DA" mask="url(#mask-2)"></path>
                    <path d="M2.28901545,64.2501507 L20.1791699,64.2501507 L20.1791699,46.7516575 L2.28901545,46.7516575 L2.28901545,64.2501507 Z M34.8448029,57.05757 C34.4018427,57.2703517 34.2186475,57.7946066 34.4361918,58.2278693 C34.6186714,58.5918379 34.7109846,58.9824043 34.7109846,59.3890693 C34.7109846,60.8540431 33.4923072,62.0460405 31.9945435,62.0460405 L22.2608683,62.0488402 C22.2279504,62.0446406 22.1370684,62.0355414 22.1041505,62.0341415 C22.0562049,62.0327416 22.0139841,62.0509401 21.9681853,62.0565396 L21.9681853,56.7236988 C22.0039657,56.7278984 22.0361679,56.743997 22.0733795,56.743997 C22.0833979,56.743997 22.0934164,56.743997 22.1041505,56.7432971 C22.1571054,56.7418972 22.208629,56.7362977 22.1986105,56.7313981 L27.9685431,56.7313981 C28.463027,56.7313981 28.8630509,56.3401318 28.8630509,55.8564735 C28.8630509,55.3735151 28.463027,54.9815488 27.9685431,54.9815488 L22.1986105,54.9815488 C22.1320592,54.9815488 22.0676546,54.9878483 22.0447552,54.9941477 C22.0168466,54.9955476 21.9946628,55.0088465 21.9681853,55.0123462 L21.9681853,45.0018082 L13.8746795,45.0018082 C13.8789731,44.5937433 13.8839823,44.016993 13.8839823,43.9889954 L13.8839823,34.4075205 C13.8839823,31.9773297 11.8623949,30 9.37852585,30 C8.68653468,30 8.02245214,30.151187 7.4034528,30.4479614 C6.95977697,30.661443 6.77729739,31.1856979 6.99484167,31.6196605 C7.21167034,32.0529232 7.74909058,32.2314079 8.19205081,32.0193261 C8.56345041,31.8408415 8.96275866,31.7498493 9.37852585,31.7498493 C10.8762896,31.7498493 12.0949669,32.9418467 12.0949669,34.4075205 L12.0949669,43.9875955 C12.0949669,44.0295919 12.0899577,44.6140416 12.085664,45.0018082 L6.61986403,45.0018082 C6.65492874,44.9024167 6.67782814,44.7974258 6.6742501,44.6861354 C6.67281889,44.6357397 6.66637844,44.5839442 6.66136919,44.5930434 L6.66136919,38.4272743 C6.66136919,37.9443159 6.26134534,37.5523497 5.76686147,37.5523497 C5.27309321,37.5523497 4.87235375,37.9443159 4.87235375,38.4272743 L4.87235375,44.5930434 C4.87235375,44.6581378 4.8787942,44.7211323 4.88523466,44.7442304 C4.88881269,44.8359225 4.91672133,44.9192153 4.94677679,45.0018082 L0.5,45.0018082 L0.5,66 L21.9681853,66 L21.9681853,63.7720918 C21.9803506,63.7734917 21.9903691,63.7804911 22.00325,63.7804911 L31.9945435,63.7958898 C34.4784125,63.7958898 36.5,61.8185601 36.5,59.3890693 C36.5,58.7129275 36.3461447,58.0626835 36.042012,57.4572356 C35.8244678,57.023273 35.2884787,56.8447884 34.8448029,57.05757 L34.8448029,57.05757 Z" id="Fill-5" fill="#0091DA" mask="url(#mask-2)"></path>
                    <path d="M33,44.25 C28.7136,44.25 25.2272727,40.8179 25.2272727,36.599 C25.2272727,32.3801 28.7136,28.948 33,28.948 C37.2857091,28.948 40.7727273,32.3801 40.7727273,36.599 C40.7727273,40.8179 37.2857091,44.25 33,44.25 L33,44.25 Z M29.1136364,23.6672 C29.1136364,21.507 30.6619636,19.75 32.5654182,19.75 L33.4345818,19.75 C35.3380364,19.75 36.8863636,21.507 36.8863636,23.6672 L36.8863636,28.0268 C35.6986909,27.4983 34.3859636,27.198 33,27.198 C31.6140364,27.198 30.3006182,27.4983 29.1136364,28.0268 L29.1136364,23.6672 Z M38.6136364,29.0271 L38.6136364,23.6672 C38.6136364,20.5424 36.2901091,18 33.4345818,18 L32.5654182,18 C29.7098909,18 27.3863636,20.5424 27.3863636,23.6672 L27.3863636,29.0264 C25.0338182,30.7379 23.5,33.4875 23.5,36.599 C23.5,41.7909 27.7532364,46 33,46 C38.2467636,46 42.5,41.7909 42.5,36.599 C42.5,33.4875 40.9661818,30.7379 38.6136364,29.0271 L38.6136364,29.0271 Z" id="Fill-6" fill="#0091DA" mask="url(#mask-2)"></path>
                    <path d="M33.5,34 C32.3955752,34 31.5,34.705916 31.5,35.5768791 C31.5,36.1599028 31.9026549,36.6686196 32.5,36.9415547 L32.5,38.57988 C32.5,38.8106602 32.739823,39 33.0336283,39 L33.9663717,39 C34.260177,39 34.5,38.8106602 34.5,38.57988 L34.5,36.9415547 C35.0973451,36.6686196 35.5,36.1599028 35.5,35.5768791 C35.5,34.705916 34.6044248,34 33.5,34" id="Fill-7" fill="#0091DA" mask="url(#mask-2)"></path>
                </g>
            </g>
        </g>
    </g>
</svg>