<?xml version="1.0" encoding="UTF-8"?>
<svg width="77px" height="73px" viewBox="0 0 77 73" version="1.1" xmlns="http://www.w3.org/2000/svg" xmlns:xlink="http://www.w3.org/1999/xlink">
    <!-- Generator: Sketch 57.1 (83088) - https://sketch.com -->
    <title>icon</title>
    <desc>Created with Sketch.</desc>
    <g id="Designs" stroke="none" stroke-width="1" fill="none" fill-rule="evenodd">
        <g id="Concord-Homepage" transform="translate(-1005.000000, -555.000000)" fill="#0091DA">
            <g id="Callout-3" transform="translate(890.000000, 512.000000)">
                <g id="icon" transform="translate(115.000000, 43.000000)">
                    <path d="M16.0224,52 C13.8072,52 12,53.808 12,56.0224 C12,57.1072 12.452,58.1472 13.1744,58.8704 C13.8976,59.5936 14.892,60 16.0224,60 C18.192,60 20,58.2376 20,56.0224 C20,54.9376 19.548,53.944 18.8248,53.22 C18.1016,52.452 17.1072,52 16.0224,52" id="Fill-1"></path>
                    <path d="M64.0224,52 C61.8072,52 60,53.808 60,56.0224 C60,57.1072 60.452,58.1472 61.1744,58.8704 C61.8976,59.5936 62.892,60 64.0224,60 C66.192,60 68,58.2376 68,56.0224 C68,54.9376 67.548,53.944 66.8248,53.22 C66.1016,52.452 65.1064,52 64.0224,52" id="Fill-3"></path>
                    <path d="M34.0224,40 C35.6496,40 37.096,39.0056 37.6832,37.5592 C37.9096,37.1072 38,36.5648 38,36.0224 C38,34.9376 37.5928,33.9432 36.8704,33.22 C36.1464,32.452 35.1072,32 34.0224,32 C31.808,32 30,33.808 30,36.0224 C30,37.1072 30.452,38.1472 31.22,38.8696 C31.9432,39.5928 32.9384,40 34.0224,40" id="Fill-8"></path>
                    <path d="M6.0224,32 C3.808,32 2,33.808 2,36.0224 C2,37.1072 2.452,38.1472 3.2208,38.8696 C3.9432,39.5928 4.9384,40 6.0224,40 C7.6496,40 9.096,39.0056 9.684,37.5592 C9.9096,37.1072 10,36.5648 10,36.0224 C10,34.9376 9.5928,33.9432 8.8704,33.22 C8.1472,32.452 7.1072,32 6.0224,32" id="Fill-10"></path>
                    <path d="M7.6832,24.5592 C7.9096,24.1072 8,23.5648 8,23.0224 C8,21.9384 7.5928,20.9432 6.8696,20.2208 C6.1464,19.452 5.1072,19 4.0224,19 C1.8072,19 0,20.808 0,23.0224 C0,24.1072 0.4512,25.1472 1.22,25.8704 C1.9432,26.5928 2.9376,27 4.0224,27 C5.6496,27 7.096,26.0056 7.6832,24.5592" id="Fill-12"></path>
                    <path d="M38.7236909,65.00016 C36.4581455,65.00016 34.6098727,66.80816 34.6098727,69.02256 C34.6098727,70.10736 35.0721455,71.14656 35.8109636,71.86976 C36.5506,72.59296 37.5676,73.00016 38.7236909,73.00016 C40.9426,73.00016 42.7916909,71.23696 42.7916909,69.02256 C42.7916909,67.93776 42.3294182,66.94336 41.5897818,66.22016 C40.8501455,65.45216 39.8331455,65.00016 38.7236909,65.00016" id="Fill-5"></path>
                    <path d="M21.1440091,8.37613636 C22.8081909,8.37613636 24.2874636,7.35913636 24.8880091,5.87986364 C25.1195545,5.41759091 25.2120091,4.86368182 25.2120091,4.30813636 C25.2120091,3.19868182 24.7955545,2.1825 24.0567364,1.44204545 C23.3162818,0.656590909 22.2534636,0.194318182 21.1440091,0.194318182 C18.8784636,0.194318182 17.0301909,2.04340909 17.0301909,4.30813636 C17.0301909,5.41759091 17.4924636,6.48122727 18.2779182,7.22086364 C19.0175545,7.9605 20.0345545,8.37613636 21.1440091,8.37613636" id="Fill-14"></path>
                    <path d="M59.3389818,8.37613636 C61.0031636,8.37613636 62.4824364,7.35913636 63.0838,5.87986364 C63.3145273,5.41759091 63.4069818,4.86368182 63.4069818,4.30813636 C63.4069818,3.19868182 62.9905273,2.1825 62.2517091,1.44204545 C61.5120727,0.656590909 60.4484364,0.194318182 59.3389818,0.194318182 C57.0742545,0.194318182 55.2251636,2.04340909 55.2251636,4.30813636 C55.2251636,5.41759091 55.6874364,6.48122727 56.4737091,7.22086364 C57.2125273,7.9605 58.2303455,8.37613636 59.3389818,8.37613636" id="Fill-17"></path>
                    <path d="M75.8704,33.22 C75.1472,32.452 74.1072,32 73.0224,32 C70.808,32 69,33.8072 69,36.0224 C69,37.1064 69.452,38.1464 70.2208,38.8696 C70.944,39.5928 71.9376,40 73.0224,40 C74.6504,40 76.096,39.0048 76.684,37.5584 C76.9096,37.1064 77,36.5648 77,36.0224 C77,34.9376 76.5936,33.9432 75.8704,33.22" id="Fill-20"></path>
                    <polygon id="Fill-22" points="29.4947618 39 19 49.5779898 20.5044001 51 31 40.4220102"></polygon>
                    <polygon id="Fill-24" points="59.3635766 37.1780401 67 37.1780401 67 35.1032539 60.2143715 35.1032539 59.8934576 34.7853966 59.8934576 10 57.8203706 10 57.8203706 32.7379976 46.7865721 21.8387304 20.6548953 21.8387304 20.6018243 21.7856159 21.6085154 21.7856159 21.6085154 10.1834111 19.5354283 10.1834111 19.5354283 21.7856159 20.3630047 21.7856159 20.3091044 21.8387304 9.78279767 21.8387304 9.78279767 23.9135166 18.2360174 23.9135166 9 33.1571044 10.4652579 34.6243932 20.7585497 24.3226645 29.6321915 33.2035796 31.0982786 31.7371207 23.281082 23.9135166 45.9357772 23.9135166 57.7490564 35.5829445 37.9834153 55.2071028 21.7511438 55.2071028 21.7511438 57.2818891 37.3366121 57.2818891 37.2984673 62.9858915 39.3715544 63 39.4096992 57.2818891 58.2200618 57.2818891 58.2200618 55.2071028 40.9271989 55.2071028 59.2242651 37.0402743"></polygon>
                </g>
            </g>
        </g>
    </g>
</svg>